# AST/ASF file generated using VICON BodyLanguage
# -----------------------------------------------
:version 1.10
:name VICON
:units
  mass 1.0
  length 0.45
  angle deg
:documentation
   .ast/.asf automatically generated from VICON data using
   VICON BodyBuilder and BodyLanguage model FoxedUp or BRILLIANT.MOD
:root
   order TX TY TZ RX RY RZ
   axis XYZ
   position 0 0 0  
   orientation 0 -0 0 
:bonedata
  begin
     id 1 
     name lhipjoint
     direction 0.432694 -0.693742 0.575759 
     length 2.19277 
     axis 0 -0 0  XYZ
  end
  begin
     id 2 
     name lfemur
     direction 0.34202 -0.939693 0  
     length 6.69022  
     axis 0 -0 20  XYZ
    dof rx ry rz
    limits (-160.0 20.0)
           (-70.0 70.0)
           (-60.0 70.0)
  end
  begin
     id 3 
     name ltibia
     direction 0.34202 -0.939693 0   
     length 6.50337   
     axis 0 -0 20   XYZ
    dof rx
    limits (-10.0 170.0)
  end
  begin
     id 4 
     name lfoot
     direction 0.158999 -0.435969 0.885805   
     length 2.70564   
     axis -90 -1.13533e-015 20   XYZ
    dof rx rz
    limits (-45.0 90.0)
           (-70.0 20.0)
  end
  begin
     id 5 
     name ltoes
     direction -0.00592919 0.00964381 0.999936   
     length 1.29929   
     axis -90 -1.13533e-015 20   XYZ
    dof rx
    limits (-90.0 20.0)
  end
  begin
     id 6 
     name rhipjoint
     direction -0.414359 -0.700339 0.581234   
     length 2.17212  
     axis 0 -0 0  XYZ 
  end
  begin
     id 7 
     name rfemur
     direction -0.34202 -0.939693 0   
     length 7.17659   
     axis 0 -0 -20   XYZ
    dof rx ry rz
    limits (-160.0 20.0)
           (-70.0 70.0)
           (-70.0 60.0)
  end
  begin
     id 8 
     name rtibia
     direction -0.34202 -0.939693 0   
     length 6.36669   
     axis 0 -0 -20   XYZ
    dof rx
    limits (-10.0 170.0)
 end
 begin
     id 9 
     name rfoot
     direction -0.137064 -0.37658 0.916188   
     length 2.22351  
     axis -90 1.13533e-015 -20   XYZ
    dof rx rz
    limits (-45.0 90.0)
           (-20.0 70.0)
  end
  begin
     id 10 
     name rtoes
     direction -0.000784077 -0.00289101 0.999996   
     length 1.09522   
     axis -90 1.13533e-015 -20   XYZ
    dof rx
    limits (-90.0 20.0)
  end
  begin
     id 11 
     name lowerback
     direction -0.0176242 0.984912 -0.172157   
     length 1.65301   
     axis 0 -0 0   XYZ
    dof rx ry rz
    limits (-20.0 45.0)
           (-30.0 30.0)
           (-30.0 30.0)
  end
  begin
     id 12 
     name upperback
     direction -0.00218128 0.998776 -0.0494072   
     length 1.67776   
     axis 0 -0 0   XYZ
    dof rx ry rz
    limits (-20.0 45.0)
           (-30.0 30.0)
           (-30.0 30.0)
  end
  begin
     id 13 
     name thorax
     direction 0.00544186 0.999658 0.0255711   
     length 1.72293   
     axis 0 -0 0   XYZ
    dof rx ry rz
    limits (-20.0 45.0)
           (-30.0 30.0)
           (-30.0 30.0)
  end
  begin
     id 14 
     name lowerneck
     direction -0.105325 0.983841 0.144785   
     length 2.14226   
     axis 0 -0 0   XYZ
    dof rx ry rz
    limits (-20.0 45.0)
           (-30.0 30.0)
           (-30.0 30.0)
  end
  begin
     id 15 
     name upperneck
     direction 0.0547957 0.988053 -0.144041   
     length 2.17508   
     axis 0 -0 0   XYZ
    dof rx ry rz
    limits (-20.0 45.0)
           (-30.0 30.0)
           (-30.0 30.0)
  end
  begin
     id 16
     name head
     direction 0.0247488 0.997534 -0.0656813  
     length 2.20048  
     axis 0 -0 0   XYZ
    dof rx ry rz
    limits (-20.0 45.0)
           (-30.0 30.0)
           (-30.0 30.0)
  end
  begin
     id 17 
     name lclavicle
     direction 0.820559 0.567247 -0.0701026  
     length 4.09615  
     axis 0 -0 0   XYZ
    dof ry rz
    limits (-20.0 10.0)
           (0.0 20.0)
  end
  begin
     id 18 
     name lhumerus
     direction 0.999977 -0.0067566 -9.96392e-005   
     length 4.59333   
     axis -180 -30 -90   XYZ
    dof rx ry rz
    limits (-60.0 90.0)
           (-90.0 90.0)
           (-90.0 90.0)
  end
  begin
     id 19
     name lradius
     direction 1 -4.48982e-011 -2.53425e-027   
     length 2.81151   
     axis -180 -30 -90   XYZ
    dof rx
    limits (-10.0 170.0)
  end
  begin
     id 20
     name lwrist
     direction 1 -4.48939e-011 -7.39254e-028   
     length 1.40576   
     axis 2.56395e-016 90 90   XYZ
    dof ry
    limits (-180.0 0.0)
 end
  begin
     id 21 
     name lhand
     direction 1 -4.48939e-011 -1.47851e-027   
     length 0.895651   
     axis 9.43423e-016 90 90   XYZ
    dof rx rz
    limits (-90.0 90.0)
           (-45.0 45.0)
  end
  begin
     id 22 
     name lfingers
     direction 1 -4.48978e-011 -2.95702e-027   
     length 0.722097   
     axis 1.88685e-015 90 90   XYZ
    dof rx
    limits (0.0 90.0)
  end
  begin
     id 23
     name lthumb
     direction 0.707107 -6.34931e-011 0.707107   
     length 1.03679   
     axis -90 45 -9.86935e-015   XYZ
    dof rx rz
    limits (-45.0 45.0)
           (-45.0 45.0)
  end
  begin
     id 24 
     name rclavicle
     direction -0.831414 0.553102 -0.0531864   
     length 4.24872  
     axis 0 -0 0   XYZ 
    dof ry rz
    limits (-10.0 20.0)
           (-20.0 0.0)
  end
  begin
     id 25 
     name rhumerus
     direction -0.999916 -0.000939607 0.0129331  
     length 4.74834   
     axis -180 30 90   XYZ
    dof rx ry rz
    limits (-90.0 60.0)
           (-90.0 90.0)
           (-90.0 90.0)
  end
  begin
     id 26 
     name rradius
     direction -1 -4.48956e-011 -1.31752e-027   
     length 2.79907   
     axis -180 30 90   XYZ
    dof rx
    limits (-10.0 170.0)
  end
  begin
     id 27 
     name rwrist
     direction -1 -4.4897e-011 -7.39254e-028   
     length 1.39954   
     axis 2.56395e-016 -90 -90   XYZ
    dof ry
    limits (-180.0 0.0)
  end
  begin
     id 28
     name rhand
     direction -0.999997 -0.00250697 0.000800838   
     length 0.953304   
     axis 9.43423e-016 -90 -90   XYZ
    dof rx rz
    limits (-90.0 90.0)
           (-45.0 45.0)
  end
  begin
     id 29
     name rfingers
     direction -1 -4.48954e-011 -2.95702e-027   
     length 0.763342   
     axis 1.88685e-015 -90 -90   XYZ
    dof rx
    limits (0.0 90.0)
  end
  begin
     id 30
     name rthumb
     direction -0.709701 -0.00217037 0.7045   
     length 1.10115   
     axis -90 -45 9.86935e-015   XYZ
    dof rx rz
    limits (-45.0 45.0)
           (-45.0 45.0)
  end
:hierarchy
  begin
    root lhipjoint rhipjoint lowerback
    lhipjoint lfemur
    lfemur ltibia
    ltibia lfoot
    lfoot ltoes
    rhipjoint rfemur
    rfemur rtibia
    rtibia rfoot
    rfoot rtoes
    lowerback upperback
    upperback thorax
    thorax lowerneck lclavicle rclavicle
    lowerneck upperneck
    upperneck head
    lclavicle lhumerus
    lhumerus lradius
    lradius lwrist
    lwrist lhand lthumb
    lhand lfingers
    rclavicle rhumerus
    rhumerus rradius
    rradius rwrist
    rwrist rhand rthumb
    rhand rfingers
  end

#!OML:ASF G:\ViconDB\ViconDB\414\test\team2\shane.ASF
:FULLY-SPECIFIED
:DEGREES
134
root 8.35842 16.1315 36.7687 -16.6103 6.21159 -6.31258
lowerback 12.6124 -2.4662 -0.184285
upperback 3.43521 -3.15714 3.18404
thorax -3.26148 -1.57166 3.90957
lowerneck -18.21 -4.71341 -10.7797
upperneck 22.7494 -6.09235 10.0612
head 11.0186 -2.53226 4.56699
rclavicle 5.45788e-014 -3.29983e-014
rhumerus -63.6782 74.9284 -64.4923
rradius 85.9305
rwrist 148.204
rhand -1.46792 3.23089
rfingers 7.12502
rthumb 24.1836 -25.2644
lclavicle -1.84746e-014 1.61016e-014
lhumerus -45.6253 -40.7952 102.84
lradius 67.8687
lwrist -11.3668
lhand -60.2141 23.1466
lfingers 7.12502
lthumb -32.3556 50.2806
rfemur -16.2841 -12.607 22.2525
rtibia 61.4619
rfoot -16.3255 -6.64777
rtoes -8.9174
lfemur 14.1981 -2.02149 -12.3264
ltibia 39.3081
lfoot -31.3846 -9.67057
ltoes -12.6134
135
root 8.39765 16.2365 37.2297 -16.4004 4.40317 -5.8914
lowerback 11.4173 -2.13801 0.139013
upperback 3.36919 -2.70718 3.20609
thorax -2.72235 -1.35584 3.62572
lowerneck -18.3152 -4.42555 -10.5731
upperneck 23.378 -5.64532 9.56395
head 11.1937 -2.36851 4.43316
rclavicle 2.84014e-014 -1.86858e-014
rhumerus -49.5052 72.0933 -50.0364
rradius 79.4101
rwrist 116.216
rhand -49.6523 14.017
rfingers 7.12502
rthumb -22.2553 -14.7216
lclavicle -1.84746e-014 1.61016e-014
lhumerus -45.6253 -40.7952 102.84
lradius 67.8687
lwrist -11.3668
lhand -60.2141 23.1466
lfingers 7.12502
lthumb -32.3556 50.2806
rfemur -16.5311 -11.3711 22.7448
rtibia 56.9929
rfoot -16.3255 -6.64777
rtoes -8.9174
lfemur 16.8831 -0.771838 -12.2631
ltibia 37.5122
lfoot -29.4808 -10.2865
ltoes -15.0015
136
root 8.39939 16.3506 37.6516 -16.1712 4.43799 -5.70698
lowerback 10.7973 -2.32435 -0.222257
upperback 3.13433 -3.00142 3.24637
thorax -2.58851 -1.50305 3.88495
lowerneck -18.2155 -4.15526 -10.1783
upperneck 23.769 -5.29755 9.12334
head 11.2522 -2.23183 4.26589
rclavicle 2.52953e-014 -1.59028e-015
rhumerus -51.458 72.7439 -51.6169
rradius 79.8518
rwrist 116.465
rhand -50.1182 13.1638
rfingers 7.12502
rthumb -22.7026 -15.5207
lclavicle -1.84746e-014 1.61016e-014
lhumerus -45.6253 -40.7952 102.84
lradius 67.8687
lwrist -11.3668
lhand -60.2141 23.1466
lfingers 7.12502
lthumb -32.3556 50.2806
rfemur -17.3287 -11.8073 23.0287
rtibia 53.9659
rfoot -16.3255 -6.64777
rtoes -8.9174
lfemur 19.0818 -0.984289 -12.1355
ltibia 34.6321
lfoot -25.7746 -12.3139
ltoes -16.8264
137
root 7.45715 16.1984 38.1402 -18.9795 -3.63435 -0.14581
lowerback 7.64764 2.77409 -23.2424
upperback 5.09072 2.31493 6.33435
thorax 0.0205644 0.649815 19.8787
lowerneck -18.0524 -3.87565 -9.86127
upperneck 24.2823 -4.9329 8.71459
head 11.3496 -2.09318 4.12992
rclavicle -5.96354e-016 6.32135e-014
rhumerus -74.1869 76.3697 -73.6351
rradius 86.7669
rwrist 147.443
rhand 0.256385 1.96553
rfingers 7.12502
rthumb 25.8359 -26.2997
lclavicle -1.84746e-014 1.61016e-014
lhumerus -45.6253 -40.7952 102.84
lradius 67.8687
lwrist -11.3668
lhand -60.2141 23.1466
lfingers 7.12502
lthumb -32.3556 50.2806
rfemur -14.0024 5.19566 26.1755
rtibia 51.1973
rfoot -16.3255 -6.64777
rtoes -8.9174
lfemur 27.4012 10.9822 -5.32947
ltibia 32.3391
lfoot -23.7012 -23.5158
ltoes -19.4207
138
root 7.49322 16.251 38.5275 -19.3278 -4.78452 -0.0261138
lowerback 8.02488 3.02396 -22.769
upperback 4.89226 2.57642 6.36012
thorax -0.524379 0.884778 19.5775
lowerneck -18.4072 -3.68402 -9.51685
upperneck 25.0144 -4.72662 8.52427
head 11.6599 -1.98649 4.05247
rclavicle 9.93923e-017 -2.78299e-015
rhumerus -78.0874 76.6646 -77.1824
rradius 87.045
rwrist 147.175
rhand 0.906679 1.3823
rfingers 7.12502
rthumb 26.4585 -26.7908
lclavicle -1.84746e-014 1.61016e-014
lhumerus -45.6253 -40.7952 102.84
lradius 67.8687
lwrist -11.3668
lhand -60.2141 23.1466
lfingers 7.12502
lthumb -32.3556 50.2806
rfemur -14.0981 5.59186 26.3642
rtibia 48.187
rfoot -16.3255 -6.64777
rtoes -8.9174
lfemur 29.6393 11.7221 -4.45019
ltibia 31.0897
lfoot -19.4524 -25.3765
ltoes -20.2978
139
root 7.49897 16.2841 38.9217 -19.784 -5.38913 0.645717
lowerback 7.39756 3.09632 -23.367
upperback 5.11542 2.8033 6.33314
thorax -0.0631638 0.907783 19.8923
lowerneck -18.3788 -3.6156 -9.58694
upperneck 25.2444 -4.64743 8.60234
head 11.7374 -1.95005 4.11438
rclavicle -6.01324e-015 -2.90226e-014
rhumerus -79.8801 76.881 -78.6452
rradius 87.1903
rwrist 146.297
rhand 1.6916 1.12235
rfingers 7.12502
rthumb 27.2096 -26.9354
lclavicle -1.84746e-014 1.61016e-014
lhumerus -45.6253 -40.7952 102.84
lradius 67.8687
lwrist -11.3668
lhand -60.2141 23.1466
lfingers 7.12502
lthumb -32.3556 50.2806
rfemur -14.1499 5.68084 25.9004
rtibia 45.3736
rfoot -16.3255 -6.64777
rtoes -8.9174
lfemur 31.7767 12.4208 -4.01514
ltibia 30.0388
lfoot -14.9954 -27.0714
ltoes -20.8168
